<svg width="49" height="47" viewBox="0 0 49 47" fill="none" xmlns="http://www.w3.org/2000/svg">
<path d="M9 0H40C44.7 0 48.5 3.8 48.5 8.5V38.3C48.5 43 44.7 46.8 40 46.8H9C4.3 46.8 0.5 43 0.5 38.3V8.5C0.5 3.8 4.3 0 9 0Z" fill="#330000"/>
<path d="M23.76 28.08H16.32L14.8 32.78C14.76 32.96 14.6 33.08 14.42 33.06H10.66C10.44 33.06 10.38 32.94 10.44 32.7L16.88 14.16C16.94 13.96 17 13.74 17.08 13.5C17.16 13.08 17.2 12.64 17.2 12.2C17.18 12.1 17.26 12 17.36 11.98C17.38 11.98 17.4 11.98 17.42 11.98H22.54C22.7 11.98 22.78 12.04 22.8 12.14L30.1 32.74C30.16 32.96 30.1 33.06 29.9 33.06H25.72C25.58 33.08 25.44 32.98 25.4 32.84L23.76 28.08ZM17.48 24.02H22.56C22.44 23.6 22.28 23.1 22.1 22.58C21.92 22.04 21.74 21.46 21.56 20.86C21.36 20.24 21.18 19.64 20.98 19.02C20.78 18.4 20.6 17.82 20.44 17.24C20.28 16.68 20.14 16.16 20 15.68H19.96C19.78 16.54 19.56 17.4 19.28 18.26C18.98 19.22 18.68 20.22 18.36 21.22C18.08 22.24 17.78 23.18 17.48 24.02Z" fill="#FF9A00"/>
<path d="M34.4601 15.4C33.8001 15.42 33.1601 15.16 32.6801 14.7C32.2201 14.2 31.9801 13.54 32.0001 12.86C31.9801 12.18 32.2401 11.54 32.7201 11.08C33.2001 10.62 33.8401 10.38 34.5001 10.38C35.2801 10.38 35.8801 10.62 36.3201 11.08C36.7601 11.56 37.0001 12.2 36.9801 12.86C37.0001 13.54 36.7601 14.2 36.2801 14.7C35.8201 15.18 35.1401 15.44 34.4601 15.4ZM32.2201 32.76V17.36C32.2201 17.16 32.3001 17.08 32.4801 17.08H36.4401C36.6201 17.08 36.7001 17.18 36.7001 17.36V32.76C36.7001 32.98 36.6201 33.08 36.4401 33.08H32.5201C32.3201 33.08 32.2201 32.96 32.2201 32.76Z" fill="#FF9A00"/>
</svg>
