<svg width="46" height="48" viewBox="0 0 46 48" fill="none" xmlns="http://www.w3.org/2000/svg">
<path d="M6.8299 42.5261L3.2691 1.29416H42.3974L38.8331 42.5198L22.8095 47.1059L6.8299 42.5261Z" fill="#1572B6"/>
<path d="M22.8337 43.6009L35.7817 39.8949L38.8278 4.66547H22.8337V43.6009Z" fill="#33A9DC"/>
<path d="M22.8337 19.6036H29.3156L29.7633 14.4252H22.8337V9.36826H35.1169L34.9993 10.7251L33.7951 24.6605H22.8337V19.6036Z" fill="white"/>
<path d="M22.8627 32.7369L22.8411 32.7434L17.3859 31.2228L17.037 27.1896H12.1205L12.8065 35.1299L22.8404 38.0048L22.8627 37.9982V32.7369Z" fill="#EBEBEB"/>
<path d="M28.8992 24.4468L28.3091 31.2189L22.8458 32.7413V38.0027L32.8878 35.1296L32.9615 34.2751L33.8136 24.4468H28.8992Z" fill="white"/>
<path d="M22.8503 9.36826V14.4252H11.0183L10.9202 13.2889L10.6971 10.7251L10.5798 9.36826H22.8503ZM22.8336 19.6043V24.6613H17.4471L17.349 23.5249L17.1255 20.9611L17.0087 19.6043H22.8336Z" fill="#EBEBEB"/>
</svg>
