<svg width="49" height="48" viewBox="0 0 49 48" fill="none" xmlns="http://www.w3.org/2000/svg">
<g clip-path="url(#clip0_228_1563)">
<path d="M9 0.799961H40C41.1165 0.798904 42.2223 1.01898 43.2541 1.4476C44.2858 1.87621 45.2233 2.50495 46.0128 3.29784C46.8023 4.09072 47.4283 5.03217 47.8551 6.06833C48.2819 7.10448 48.5011 8.21498 48.5 9.33629V39.2636C48.5011 40.3849 48.2819 41.4954 47.8551 42.5316C47.4283 43.5677 46.8023 44.5092 46.0128 45.3021C45.2233 46.095 44.2858 46.7237 43.2541 47.1523C42.2223 47.5809 41.1165 47.801 40 47.8H9C7.88347 47.801 6.77769 47.5809 5.74595 47.1523C4.71421 46.7237 3.77676 46.095 2.98725 45.3021C2.19774 44.5092 1.57168 43.5677 1.14488 42.5316C0.718092 41.4954 0.498951 40.3849 0.500004 39.2636V9.33629C0.498951 8.21498 0.718092 7.10448 1.14488 6.06833C1.57168 5.03217 2.19774 4.09072 2.98725 3.29784C3.77676 2.50495 4.71421 1.87621 5.74595 1.4476C6.77769 1.01898 7.88347 0.798904 9 0.799961Z" fill="#000B1D"/>
<path d="M19.5 39.3641C22.2614 39.3641 24.5 37.1159 24.5 34.3427V29.3214H19.5C16.7386 29.3214 14.5 31.5695 14.5 34.3427C14.5 37.1159 16.7386 39.3641 19.5 39.3641Z" fill="#0ACF83"/>
<path d="M14.5 24.3C14.5 21.5268 16.7386 19.2786 19.5 19.2786H24.5V29.3214H19.5C16.7386 29.3214 14.5 27.0732 14.5 24.3Z" fill="#A259FF"/>
<path d="M14.5 14.2572C14.5 11.484 16.7386 9.23587 19.5 9.23587H24.5V19.2786H19.5C16.7386 19.2786 14.5 17.0305 14.5 14.2572Z" fill="#F24E1E"/>
<path d="M24.5 9.23587H29.5C32.2614 9.23587 34.5 11.484 34.5 14.2572C34.5 17.0305 32.2614 19.2786 29.5 19.2786H24.5V9.23587Z" fill="#FF7262"/>
<path d="M34.5 24.3C34.5 27.0732 32.2614 29.3214 29.5 29.3214C26.7386 29.3214 24.5 27.0732 24.5 24.3C24.5 21.5268 26.7386 19.2786 29.5 19.2786C32.2614 19.2786 34.5 21.5268 34.5 24.3Z" fill="#1ABCFE"/>
</g>
<defs>
<clipPath id="clip0_228_1563">
<rect width="48" height="47" fill="white" transform="translate(0.5 0.799988)"/>
</clipPath>
</defs>
</svg>
