<svg width="46" height="48" viewBox="0 0 46 48" fill="none" xmlns="http://www.w3.org/2000/svg">
<path d="M7.24229 42.4359L3.69885 1.40729H42.6345L39.0872 42.4297L23.143 46.9927L7.24229 42.4359Z" fill="#E44D26"/>
<path d="M23.1667 43.505L36.0506 39.8173L39.0819 4.7619H23.1667V43.505Z" fill="#F16529"/>
<path d="M23.1667 19.9789H16.7166L16.2711 14.8257H23.1667V9.79401H10.944L11.0609 11.1439L12.2587 25.011H23.1667V19.9789ZM23.1667 33.0474L23.1451 33.0536L17.7168 31.5399L17.37 27.5272H12.4765L13.1593 35.428L23.1444 38.2894L23.1667 38.2831V33.0474Z" fill="#EBEBEB"/>
<path d="M23.1497 19.9789V25.011H29.1517L28.5861 31.537L23.1497 33.0518V38.2872L33.1425 35.428L33.2158 34.5779L34.3612 21.3302L34.4798 19.9789H33.1666H23.1497ZM23.1497 9.79401V14.8257H34.9236L35.0213 13.6952L35.2437 11.1439L35.3603 9.79401H23.1497Z" fill="white"/>
</svg>
