<svg width="49" height="47" viewBox="0 0 49 47" fill="none" xmlns="http://www.w3.org/2000/svg">
<path d="M9 0H40C44.7 0 48.5 3.8 48.5 8.5V38.3C48.5 43 44.7 46.8 40 46.8H9C4.3 46.8 0.5 43 0.5 38.3V8.5C0.5 3.8 4.3 0 9 0Z" fill="#49021F"/>
<path d="M17.94 12.24V32.84C17.94 33.06 17.84 33.16 17.66 33.16H13.74C13.56 33.16 13.48 33.06 13.48 32.84V12.24C13.48 12.06 13.58 11.98 13.76 11.98H17.66C17.78 11.96 17.9 12.04 17.92 12.18C17.94 12.2 17.94 12.22 17.94 12.24Z" fill="#FF3366"/>
<path d="M29.5 33.4C28.02 33.42 26.54 33.12 25.2 32.5C23.94 31.92 22.9 30.96 22.18 29.78C21.44 28.56 21.08 27.04 21.08 25.22C21.06 23.74 21.44 22.28 22.18 21C22.94 19.7 24.04 18.62 25.36 17.9C26.76 17.12 28.44 16.74 30.42 16.74C30.52 16.74 30.66 16.74 30.84 16.76C31.02 16.78 31.22 16.78 31.46 16.8V10.48C31.46 10.34 31.52 10.26 31.66 10.26H35.72C35.82 10.24 35.9 10.32 35.92 10.4V10.44V29.48C35.92 29.84 35.94 30.24 35.96 30.68C36 31.1 36.02 31.5 36.04 31.84C36.04 31.98 35.98 32.1 35.84 32.16C34.8 32.6 33.7 32.92 32.58 33.12C31.58 33.3 30.54 33.4 29.5 33.4ZM31.46 29.4V20.6C31.28 20.56 31.1 20.52 30.92 20.5C30.7 20.48 30.48 20.46 30.26 20.46C29.48 20.46 28.7 20.62 28 20.98C27.32 21.32 26.74 21.82 26.3 22.46C25.86 23.1 25.64 23.96 25.64 25C25.62 25.7 25.74 26.4 25.98 27.06C26.18 27.6 26.48 28.08 26.88 28.48C27.26 28.84 27.72 29.12 28.24 29.28C28.78 29.46 29.34 29.54 29.9 29.54C30.2 29.54 30.48 29.52 30.74 29.5C31 29.52 31.24 29.48 31.46 29.4Z" fill="#FF3366"/>
</svg>
