<svg width="49" height="47" viewBox="0 0 49 47" fill="none" xmlns="http://www.w3.org/2000/svg">
<path d="M9 0H40C44.7 0 48.5 3.8 48.5 8.5V38.3C48.5 43 44.7 46.8 40 46.8H9C4.3 46.8 0.5 43 0.5 38.3V8.5C0.5 3.8 4.3 0 9 0Z" fill="#001E36"/>
<path d="M11.3 32.82V12.24C11.3 12.1 11.36 12.02 11.5 12.02C11.84 12.02 12.16 12.02 12.62 12C13.1 11.98 13.6 11.98 14.14 11.96C14.68 11.94 15.26 11.94 15.88 11.92C16.5 11.9 17.1 11.9 17.7 11.9C19.34 11.9 20.7 12.1 21.82 12.52C22.82 12.86 23.74 13.42 24.5 14.16C25.14 14.8 25.64 15.58 25.96 16.44C26.26 17.28 26.42 18.14 26.42 19.04C26.42 20.76 26.02 22.18 25.22 23.3C24.42 24.42 23.3 25.26 22 25.74C20.64 26.24 19.14 26.42 17.5 26.42C17.02 26.42 16.7 26.42 16.5 26.4C16.3 26.38 16.02 26.38 15.64 26.38V32.8C15.66 32.94 15.56 33.06 15.42 33.08C15.4 33.08 15.38 33.08 15.34 33.08H11.54C11.38 33.08 11.3 33 11.3 32.82ZM15.66 15.88V22.6C15.94 22.62 16.2 22.64 16.44 22.64H17.5C18.28 22.64 19.06 22.52 19.8 22.28C20.44 22.1 21 21.72 21.44 21.22C21.86 20.72 22.06 20.04 22.06 19.16C22.08 18.54 21.92 17.92 21.6 17.38C21.26 16.86 20.78 16.46 20.2 16.24C19.46 15.94 18.66 15.82 17.84 15.84C17.32 15.84 16.86 15.84 16.48 15.86C16.08 15.84 15.8 15.86 15.66 15.88Z" fill="#31A8FF"/>
<path d="M38.9 21.38C38.3 21.06 37.66 20.84 36.98 20.7C36.24 20.54 35.5 20.44 34.74 20.44C34.34 20.42 33.92 20.48 33.54 20.58C33.28 20.64 33.06 20.78 32.92 20.98C32.82 21.14 32.76 21.34 32.76 21.52C32.76 21.7 32.84 21.88 32.96 22.04C33.14 22.26 33.38 22.44 33.64 22.58C34.1 22.82 34.58 23.04 35.06 23.24C36.14 23.6 37.18 24.1 38.14 24.7C38.8 25.12 39.34 25.68 39.72 26.36C40.04 27 40.2 27.7 40.18 28.42C40.2 29.36 39.92 30.3 39.4 31.08C38.84 31.88 38.06 32.5 37.16 32.86C36.18 33.28 34.98 33.5 33.54 33.5C32.62 33.5 31.72 33.42 30.82 33.24C30.12 33.12 29.42 32.9 28.78 32.6C28.64 32.52 28.54 32.38 28.56 32.22V28.74C28.56 28.68 28.58 28.6 28.64 28.56C28.7 28.52 28.76 28.54 28.82 28.58C29.6 29.04 30.42 29.36 31.3 29.56C32.06 29.76 32.86 29.86 33.66 29.86C34.42 29.86 34.96 29.76 35.32 29.58C35.64 29.44 35.86 29.1 35.86 28.74C35.86 28.46 35.7 28.2 35.38 27.94C35.06 27.68 34.4 27.38 33.42 27C32.4 26.64 31.46 26.16 30.58 25.56C29.96 25.12 29.44 24.54 29.06 23.86C28.74 23.22 28.58 22.52 28.6 21.82C28.6 20.96 28.84 20.14 29.28 19.4C29.78 18.6 30.52 17.96 31.38 17.56C32.32 17.08 33.5 16.86 34.92 16.86C35.74 16.86 36.58 16.92 37.4 17.04C38 17.12 38.58 17.28 39.12 17.5C39.2 17.52 39.28 17.6 39.32 17.68C39.34 17.76 39.36 17.84 39.36 17.92V21.18C39.36 21.26 39.32 21.34 39.26 21.38C39.08 21.42 38.98 21.42 38.9 21.38Z" fill="#31A8FF"/>
</svg>
